<?xml version="1.0" encoding="UTF-8"?>
<svg id="Layer_2" data-name="Layer 2" xmlns="http://www.w3.org/2000/svg" viewBox="0 0 624.14 608.44">
  <defs>
    <style>
      .cls-1 {
        fill: #fff;
      }
    </style>
  </defs>
  <g id="Layer_3" data-name="Layer 3">
    <g>
      <path class="cls-1" d="M577.22,81.33c-12.18,11.92-23.66,23.04-35,34.29-28.87,28.61-57.69,57.28-86.53,85.92-6.5,6.46-6.49,6.38-14.5,2.41-24.76-12.25-49.5-24.55-74.37-36.57-3.98-1.93-5.05-4.18-4.71-8.44,5.06-63.13,57.37-106.48,106.45-112.93,38.95-5.12,73.63,4.08,103.2,30.6,1.48,1.33,3,2.61,5.46,4.74Z"/>
      <path class="cls-1" d="M586.19,91.62c14.67,16.71,23.99,35.51,27.61,56.76,9.13,53.62-7.79,97.32-50.87,130.79-2.89,2.25-5.25,2.51-8.54,.87-21.13-10.58-42.47-20.75-63.49-31.55-9.01-4.63-17.53-10.27-26.05-15.78-7.45-4.83-8.41-13.19-2.14-19.43,25.38-25.26,50.9-50.37,76.38-75.52,14.93-14.74,29.9-29.45,44.85-44.17,.58-.57,1.21-1.07,2.23-1.96Z"/>
      <path class="cls-1" d="M362.47,178.18c24.61,12.16,49.19,24.31,74.2,36.67-4.33,5.35-6.48,10.27-4.55,16.35,2.98,9.41,12.25,12.87,20.61,7.64,1.22-.76,3.26-1.52,4.34-1.02,7.81,3.6,15.51,7.46,23.15,11.4,1.58,.81,3.35,2.06,4.09,3.56,3.28,6.67,9.62,9.36,15.58,12.55,12.46,6.67,24.97,13.24,37.43,19.91,2,1.07,3.85,2.44,5.88,3.74-28.84,24.25-112.15,13.75-134.85-16.97,1.23-1.37,2.49-2.85,3.84-4.24,2.9-2.99,5.88-5.89,8.76-8.9,4.74-4.93,5.49-8.46,2.58-11.59-2.82-3.04-5.79-2.38-11.06,2.55-3.77,3.53-7.6,7-11.18,10.71-2.74,2.85-4.62,3.15-7.59-.1-20.75-22.78-30.89-49.72-32.17-80.25-.01-.28,.25-.57,.93-2.02Z"/>
      <path class="cls-1" d="M57.33,142.07c10.14-9.25,19.46-17.77,29.32-26.77,44.38,44.03,90.07,89.36,136.11,135.04-9.84,8.91-19.27,17.44-28.68,25.96-44.34-43.53-90.29-88.63-136.75-134.24Z"/>
      <path class="cls-1" d="M343.81,389.64c46.02,45.6,92.21,91.38,138.62,137.36-7.65,7.98-15.04,15.85-22.71,23.43-.62,.61-3.67-.22-4.74-1.26-9.93-9.6-19.71-19.37-29.48-29.15-34.01-34.04-67.94-68.15-102.05-102.09-3.54-3.52-3.78-5.61,.09-9.02,7.22-6.35,13.98-13.24,20.28-19.27Z"/>
      <path class="cls-1" d="M0,200c8.65-8.42,16.75-16.3,25.21-24.53,6.68,6.57,13.77,13.51,20.84,20.48,6.76,6.66,13.42,13.44,20.31,19.97,2.56,2.42,2.63,4.12,0,6.46-2.6,2.32-4.98,4.91-7.22,7.59-1.83,2.19-2.95,5.24,.03,6.86,1.82,.99,5.38,.82,7.04-.37,3.87-2.78,7.07-6.5,11.26-10.52,16.66,16.93,33.43,34.03,50.28,51.07,10.42,10.54,20.89,21.04,31.49,31.4,2.28,2.23,2.75,3.79,.31,6.11-7.71,7.35-15.32,14.8-22.02,21.3C92.01,290.84,46.21,245.62,0,200Z"/>
      <path class="cls-1" d="M230.07,428.35c-6.33-6.49-12.44-12.82-18.63-19.08-11.47-11.6-23.01-23.13-34.49-34.72-4.85-4.9-4.8-5.22,.12-9.75,2.07-1.9,4.14-3.79,7.52-6.87,7.29,7.82,14.32,15.56,21.57,23.07,5.49,5.68,8.42,6.31,11.66,3.15,2.93-2.86,2.07-5.79-3.22-11.29-6.56-6.83-13.07-13.7-19.75-20.7,14.26-13.61,28.16-26.86,42.49-40.54,7.64,7.44,16.8,16.31,25.9,25.25,8.67,8.51,17.2,17.17,25.94,25.61,2.46,2.37,2.72,4.37,.37,6.74-18.97,19.17-37.94,38.33-56.93,57.48-.45,.45-1.09,.72-2.56,1.66Z"/>
      <path class="cls-1" d="M331.84,540.21c8.29-7.85,16.48-15.59,25.13-23.78,4.41,4.5,9.34,9.63,14.38,14.66,16.63,16.59,33.23,33.2,50,49.65,2.94,2.88,3.12,4.84,.08,7.67-7.16,6.66-14.11,13.55-20.82,20.03-22.64-22.47-45.43-45.07-68.77-68.23Z"/>
      <path class="cls-1" d="M310.17,360.56c-7.15-7.89-14.07-16-21.49-23.62-13.11-13.47-26.54-26.62-39.8-39.94-4.99-5.02-4.79-6.08,1.44-9.83,26.8-16.14,64.75,1.42,70.9,32.82,2.38,12.14,1.32,23.84-5.06,34.7-.97,1.65-2.34,3.07-3.53,4.6-.82,.42-1.64,.85-2.46,1.27Z"/>
      <path class="cls-1" d="M286.78,445.34c15.32,15.54,29.41,29.89,43.56,44.18,4.8,4.84,9.69,9.61,14.71,14.22,2.3,2.12,2.79,3.87,.39,6.16-7.46,7.12-14.87,14.29-22.61,21.75-.59-.51-1.74-1.39-2.75-2.41-17.74-17.79-35.46-35.6-53.18-53.42-4.71-4.73-4.59-4.66-.12-9.28,6.47-6.69,12.78-13.53,20-21.2Z"/>
      <path class="cls-1" d="M88.48,214.96c3.98-3.79,7.08-6.74,10.52-10.02,12.37,12.18,25.04,24.4,37.41,36.9,22.58,22.82,45.03,45.77,67.43,68.76,6.8,6.98,5.27,5.42-.16,11.63-1.29,1.48-2.58,2.96-3.94,4.53-37.38-37.57-74.19-74.56-111.25-111.82Z"/>
      <path class="cls-1" d="M12.62,526.67c1.13-1.3,2.77-3.78,4.97-5.59,16.3-13.44,32.69-26.78,49.11-40.07,17.06-13.82,34.19-27.55,51.3-41.31,1.16-.93,2.38-1.84,3.7-2.52,3.13-1.63,6.27-1.61,8.53,1.36,2.33,3.07,1.3,6.07-1.42,8.36-10.42,8.8-20.85,17.59-31.4,26.23-23.31,19.07-46.68,38.05-70.06,57.03-1.92,1.56-3.92,3.19-6.16,4.13-4.1,1.71-8.74-1.76-8.55-7.6Z"/>
      <path class="cls-1" d="M369.11,486.47c-3.28,3.4-6.24,6.48-9.56,9.93-8.53-8.51-16.63-16.58-24.73-24.67-19.31-19.3-38.65-38.58-57.92-57.92-4.64-4.66-4.47-7.59,.23-11.66,2.97-2.57,5.63-2.88,8.67,.17,26.21,26.28,52.51,52.47,78.75,78.72,1.62,1.62,2.95,3.51,4.55,5.43Z"/>
      <path class="cls-1" d="M86.21,580.15c1.6-3.09,2.66-5.69,4.19-7.99,17.75-26.72,35.59-53.39,53.37-80.09,2.86-4.29,5.52-8.7,8.39-12.98,1.1-1.64,2.33-3.31,3.85-4.53,2.8-2.24,5.9-2.2,8.67,.14,2.86,2.42,2.32,5.21,.46,8.01-10.11,15.24-20.25,30.45-30.31,45.72-11.15,16.94-22.19,33.95-33.36,50.88-1.35,2.05-2.87,4.29-4.88,5.51-1.54,.94-4.3,1.09-5.92,.33-1.78-.84-2.88-3.13-4.46-5.01Z"/>
      <path class="cls-1" d="M204.82,434.74c0,3.74,.24,8.23-.15,12.65-.12,1.3-1.83,3.16-3.16,3.54-27.63,7.97-55.35-18.28-49.36-46.63,.17-.8,.4-2.24,.68-2.27,4.74-.34,9.52-.91,14.21-.48,1.46,.14,3.34,2.9,3.87,4.79,2.98,10.54,9.44,18.39,18.74,23.6,4.19,2.35,9.32,3.02,15.17,4.79Z"/>
      <path class="cls-1" d="M368.09,504.04c3.21-2.91,6.5-5.91,9.71-8.82,22.58,22.61,45.45,45.52,68.99,69.1-3.25,2.85-6.56,5.75-10.04,8.79-22.67-22.8-45.48-45.76-68.67-69.08Z"/>
      <path class="cls-1" d="M144.68,453.9c2.27,1.57,4.75,2.4,5.41,3.98,.74,1.77,.62,4.86-.5,6.27-3.82,4.8-8.16,9.21-12.47,13.59-15.65,15.88-31.36,31.71-47.09,47.51-2.16,2.17-4.14,5.04-7.63,1.07-5.3-6.03-5.56-6.64-1.28-10.9,18.65-18.53,37.24-37.12,55.94-55.61,2.16-2.13,4.82-3.76,7.63-5.92Z"/>
      <path class="cls-1" d="M12.17,601.4c-2.18-1.71-5.01-2.82-5.36-4.46-.5-2.38-.05-5.88,1.47-7.59,5.95-6.72,12.41-13,18.81-19.3,12.22-12.03,24.56-23.93,36.78-35.95,3.04-2.99,5.71-4.99,9.38-.71,3.73,4.36,3.96,6.16-.46,10.52-13.14,12.99-26.41,25.86-39.59,38.81-4.75,4.67-9.29,9.55-14.13,14.12-1.83,1.73-4.25,2.84-6.9,4.56Z"/>
      <path class="cls-1" d="M89.5,197.32c-3.08,3.15-6.29,6.42-9.35,9.55-13.96-13.79-27.59-27.24-41.21-40.71-2.29-2.27-2.65-4.49,.11-6.75,1.67-1.37,3-3.23,4.83-4.28,1.1-.63,3.48-.76,4.22-.04,13.78,13.55,27.4,27.25,41.03,40.95,.2,.2,.19,.61,.37,1.28Z"/>
      <path class="cls-1" d="M278.3,136.87c5.5,0,10.3-.04,15.11,.01,3.13,.04,6.57,.43,6.48,4.45-.09,3.98-3.35,4.91-6.81,4.92-4.65,0-9.3,0-14.78,0,0,6.33,0,12.41,0,18.49,0,3-1.06,5.42-4.4,5.51-3.6,.09-4.83-2.34-4.84-5.6,0-1.5,0-3,0-4.49,0-4.45,0-8.9,0-13.87-5.49,0-10.44-.05-15.39,.02-3.45,.05-6.25-1.17-6.19-4.86,.05-3.42,2.88-4.55,6.04-4.56,4.97-.01,9.93,0,15.6,0,0-5.82-.03-11.07,.02-16.32,.01-1.48-.25-3.41,.54-4.34,1.24-1.44,3.44-3.22,4.92-2.97,1.44,.24,3.43,2.78,3.54,4.42,.42,6.12,.17,12.28,.17,19.2Z"/>
      <path class="cls-1" d="M579.67,63.41h44.47v52.83c-4.52-7.56-11.58-13.85-11.79-23.52-.1-4.33-.17-8.66,.02-12.98,.14-3.31-1.33-4.52-4.43-4.41-2,.07-4.06-.31-5.98,.07-10.27,2.02-15.57-5.06-22.29-11.98Z"/>
      <path class="cls-1" d="M351.92,283.14v-52.12c.3-.07,.6-.13,.9-.2,3.61,6.7,8.02,13.12,10.56,20.21,1.65,4.6,.87,10.19,.64,15.31-.19,4.2,1.31,5.84,5.43,5.41,1.64-.17,3.38,.29,4.98,0,9.84-1.85,14.96,4.82,21.14,11.41h-43.67Z"/>
      <path class="cls-1" d="M335.41,19.33c4.63,0,8.74-.05,12.84,.02,3.22,.05,6.29,.75,6.2,4.78-.09,3.75-2.82,4.97-6.17,5.01-4.11,.05-8.21,.01-12.81,.01,0,5.19,.02,9.81,0,14.42-.02,2.89-.75,5.55-4.22,5.61-3.62,.07-4.79-2.62-4.89-5.69-.15-4.61-.04-9.22-.04-14.39-4.1,0-7.71,.02-11.32,0-3.68-.02-6.89-1.04-6.84-5.4,.05-4.17,3.38-4.28,6.51-4.28,3.63,0,7.27,0,11.6,0,0-4.64-.02-8.9,0-13.16,.02-3.25,.79-6.3,4.74-6.27,4.07,.03,4.46,3.16,4.41,6.4-.07,4.11-.02,8.23-.02,12.93Z"/>
      <path class="cls-1" d="M520.93,422.07c0,5.05,.1,9.36-.03,13.66-.09,2.78-.7,5.63-4.25,5.65-3.73,.02-4.55-2.74-4.58-5.85-.03-4.28,0-8.57,0-13.44-4.18,0-7.79,.04-11.41-.01-3.34-.05-6.21-1.26-6.21-4.98,0-3.86,3.08-4.72,6.34-4.76,3.61-.05,7.22-.01,11.3-.01,0-4.94-.03-9.22,.01-13.51,.03-3.13,.98-5.81,4.69-5.76,3.63,.05,4.06,3.03,4.17,5.72,.18,4.29,.05,8.59,.05,13.55,4.2,0,7.97,.02,11.73,0,3.42-.03,6.84,.59,6.91,4.69,.08,4.44-3.57,5.02-7.11,5.05-3.63,.03-7.26,0-11.6,0Z"/>
      <path class="cls-1" d="M414.98,368.25c-3.79,0-6.93,.07-10.06-.02-3.29-.1-6.25-1.34-6.4-4.94-.17-4.11,3.3-4.43,6.39-4.54,3.13-.11,6.26-.02,10.08-.02,0-4.54-.46-8.57,.18-12.41,.36-2.15,2.27-5.32,3.99-5.69,3.53-.76,4.64,2.58,4.81,5.53,.23,3.94,.06,7.9,.06,12.39,3.88,0,7.17,0,10.45,0,3.11,0,5.77,.73,5.9,4.51,.14,3.83-2.7,4.72-5.63,4.93-3.44,.25-6.9,.06-10.94,.06,0,4.88,.04,9.16-.02,13.44-.04,2.98-.63,6.27-4.14,6.38-3.82,.12-4.59-3.21-4.64-6.41-.07-4.14-.02-8.28-.02-13.22Z"/>
    </g>
  </g>
</svg>